<svg xmlns="http://www.w3.org/2000/svg" xmlns:xlink="http://www.w3.org/1999/xlink" width="32" height="32" viewBox="0 0 32 32">
  <defs>
    <clipPath id="clip-Twitter">
      <rect width="32" height="32"/>
    </clipPath>
  </defs>
  <g id="Twitter" clip-path="url(#clip-Twitter)">
    <path id="Icon_metro-twitter" data-name="Icon metro-twitter" d="M27.513,7.217a10.231,10.231,0,0,1-2.939.806,5.133,5.133,0,0,0,2.25-2.831,10.245,10.245,0,0,1-3.25,1.242,5.122,5.122,0,0,0-8.72,4.667A14.528,14.528,0,0,1,4.307,5.754a5.123,5.123,0,0,0,1.584,6.832,5.1,5.1,0,0,1-2.318-.64c0,.021,0,.043,0,.064a5.121,5.121,0,0,0,4.1,5.018,5.126,5.126,0,0,1-2.311.088,5.122,5.122,0,0,0,4.78,3.554A10.267,10.267,0,0,1,3.791,22.86a10.379,10.379,0,0,1-1.221-.072,14.484,14.484,0,0,0,7.844,2.3,14.461,14.461,0,0,0,14.56-14.56q0-.333-.015-.662a10.4,10.4,0,0,0,2.554-2.649Z" transform="translate(0.958 1.048)"/>
  </g>
</svg>
